<mxfile host="app.diagrams.net" modified="2021-06-02T15:27:26.695Z" agent="5.0 (Windows NT 10.0; Win64; x64) AppleWebKit/537.36 (KHTML, like Gecko) Chrome/90.0.4430.212 Safari/537.36" etag="CpLk1WG9qrh9mdG0DzKT" version="14.5.3" type="github">
  <diagram id="NYWSsR9mbPrkU6u2Gqjj" name="Page-1">
    <mxGraphModel dx="650" dy="467" grid="0" gridSize="10" guides="1" tooltips="1" connect="1" arrows="1" fold="1" page="1" pageScale="1" pageWidth="827" pageHeight="1169" math="0" shadow="0">
      <root>
        <mxCell id="0" />
        <mxCell id="1" parent="0" />
        <mxCell id="WMFtPknigPcWq87GCNKJ-4" style="edgeStyle=orthogonalEdgeStyle;rounded=0;orthogonalLoop=1;jettySize=auto;html=1;" edge="1" parent="1">
          <mxGeometry relative="1" as="geometry">
            <mxPoint x="217" y="155.5" as="targetPoint" />
            <mxPoint x="177" y="155.5" as="sourcePoint" />
          </mxGeometry>
        </mxCell>
        <mxCell id="WMFtPknigPcWq87GCNKJ-6" style="edgeStyle=orthogonalEdgeStyle;rounded=0;orthogonalLoop=1;jettySize=auto;html=1;" edge="1" parent="1">
          <mxGeometry relative="1" as="geometry">
            <mxPoint x="144.5" y="220" as="targetPoint" />
            <mxPoint x="144.5" y="180" as="sourcePoint" />
          </mxGeometry>
        </mxCell>
        <mxCell id="WMFtPknigPcWq87GCNKJ-12" style="edgeStyle=orthogonalEdgeStyle;rounded=0;orthogonalLoop=1;jettySize=auto;html=1;exitX=0;exitY=0;exitDx=80;exitDy=30;exitPerimeter=0;" edge="1" parent="1">
          <mxGeometry relative="1" as="geometry">
            <mxPoint x="120" y="155" as="targetPoint" />
            <mxPoint x="90" y="155" as="sourcePoint" />
          </mxGeometry>
        </mxCell>
        <mxCell id="WMFtPknigPcWq87GCNKJ-1" value="log" style="shape=note;whiteSpace=wrap;html=1;backgroundOutline=1;darkOpacity=0.05;fillColor=#a0522d;strokeColor=#6D1F00;fontColor=#ffffff;" vertex="1" parent="1">
          <mxGeometry x="11" y="130" width="77" height="46" as="geometry" />
        </mxCell>
        <mxCell id="WMFtPknigPcWq87GCNKJ-3" value="kafka" style="rounded=0;whiteSpace=wrap;html=1;fillColor=#fa6800;strokeColor=#C73500;fontColor=#ffffff;" vertex="1" parent="1">
          <mxGeometry x="221" y="130" width="71" height="45" as="geometry" />
        </mxCell>
        <mxCell id="WMFtPknigPcWq87GCNKJ-19" style="edgeStyle=orthogonalEdgeStyle;rounded=0;orthogonalLoop=1;jettySize=auto;html=1;exitX=0.5;exitY=1;exitDx=0;exitDy=0;" edge="1" parent="1">
          <mxGeometry relative="1" as="geometry">
            <mxPoint x="145" y="302" as="targetPoint" />
            <mxPoint x="145" y="272" as="sourcePoint" />
          </mxGeometry>
        </mxCell>
        <mxCell id="WMFtPknigPcWq87GCNKJ-5" value="hdfs" style="ellipse;whiteSpace=wrap;html=1;fillColor=#dae8fc;strokeColor=#6c8ebf;" vertex="1" parent="1">
          <mxGeometry x="100" y="223" width="90" height="46" as="geometry" />
        </mxCell>
        <mxCell id="WMFtPknigPcWq87GCNKJ-14" style="edgeStyle=orthogonalEdgeStyle;rounded=0;orthogonalLoop=1;jettySize=auto;html=1;exitX=0.5;exitY=1;exitDx=0;exitDy=0;" edge="1" parent="1">
          <mxGeometry relative="1" as="geometry">
            <mxPoint x="380" y="213" as="targetPoint" />
            <mxPoint x="380" y="183" as="sourcePoint" />
          </mxGeometry>
        </mxCell>
        <mxCell id="WMFtPknigPcWq87GCNKJ-17" style="edgeStyle=orthogonalEdgeStyle;rounded=0;orthogonalLoop=1;jettySize=auto;html=1;exitX=1;exitY=0.5;exitDx=0;exitDy=0;" edge="1" parent="1">
          <mxGeometry relative="1" as="geometry">
            <mxPoint x="483" y="150.5" as="targetPoint" />
            <mxPoint x="443" y="150.5" as="sourcePoint" />
          </mxGeometry>
        </mxCell>
        <mxCell id="WMFtPknigPcWq87GCNKJ-7" value="SparkStreaming" style="ellipse;whiteSpace=wrap;html=1;fillColor=#1ba1e2;strokeColor=#006EAF;fontColor=#ffffff;" vertex="1" parent="1">
          <mxGeometry x="340" y="121" width="100" height="60" as="geometry" />
        </mxCell>
        <mxCell id="WMFtPknigPcWq87GCNKJ-10" style="edgeStyle=orthogonalEdgeStyle;rounded=0;orthogonalLoop=1;jettySize=auto;html=1;" edge="1" parent="1">
          <mxGeometry relative="1" as="geometry">
            <mxPoint x="338" y="154.5" as="targetPoint" />
            <mxPoint x="298" y="154.5" as="sourcePoint" />
            <Array as="points">
              <mxPoint x="308" y="155" />
              <mxPoint x="308" y="155" />
            </Array>
          </mxGeometry>
        </mxCell>
        <mxCell id="WMFtPknigPcWq87GCNKJ-11" value="flume" style="triangle;whiteSpace=wrap;html=1;fillColor=#dae8fc;strokeColor=#6c8ebf;" vertex="1" parent="1">
          <mxGeometry x="122" y="120" width="50" height="70" as="geometry" />
        </mxCell>
        <mxCell id="WMFtPknigPcWq87GCNKJ-15" style="edgeStyle=orthogonalEdgeStyle;rounded=0;orthogonalLoop=1;jettySize=auto;html=1;exitX=0.5;exitY=0;exitDx=0;exitDy=0;exitPerimeter=0;" edge="1" parent="1">
          <mxGeometry relative="1" as="geometry">
            <mxPoint x="400" y="183" as="targetPoint" />
            <mxPoint x="400" y="212" as="sourcePoint" />
          </mxGeometry>
        </mxCell>
        <mxCell id="WMFtPknigPcWq87GCNKJ-13" value="redis去重" style="shape=cylinder3;whiteSpace=wrap;html=1;boundedLbl=1;backgroundOutline=1;size=15;fillColor=#1ba1e2;strokeColor=#006EAF;fontColor=#ffffff;" vertex="1" parent="1">
          <mxGeometry x="356" y="215" width="66" height="61" as="geometry" />
        </mxCell>
        <mxCell id="WMFtPknigPcWq87GCNKJ-22" style="edgeStyle=orthogonalEdgeStyle;rounded=0;orthogonalLoop=1;jettySize=auto;html=1;exitX=0;exitY=0.5;exitDx=0;exitDy=0;exitPerimeter=0;" edge="1" parent="1">
          <mxGeometry relative="1" as="geometry">
            <mxPoint x="447" y="164.5" as="targetPoint" />
            <mxPoint x="477" y="164" as="sourcePoint" />
          </mxGeometry>
        </mxCell>
        <mxCell id="WMFtPknigPcWq87GCNKJ-29" style="edgeStyle=orthogonalEdgeStyle;rounded=0;orthogonalLoop=1;jettySize=auto;html=1;exitX=0.5;exitY=1;exitDx=0;exitDy=0;exitPerimeter=0;" edge="1" parent="1">
          <mxGeometry relative="1" as="geometry">
            <mxPoint x="515" y="221.66665649414062" as="targetPoint" />
            <mxPoint x="515" y="187.5" as="sourcePoint" />
          </mxGeometry>
        </mxCell>
        <mxCell id="WMFtPknigPcWq87GCNKJ-16" value="mysql" style="shape=cylinder3;whiteSpace=wrap;html=1;boundedLbl=1;backgroundOutline=1;size=15;fillColor=#d80073;strokeColor=#A50040;fontColor=#ffffff;" vertex="1" parent="1">
          <mxGeometry x="489" y="123.5" width="50" height="60" as="geometry" />
        </mxCell>
        <mxCell id="WMFtPknigPcWq87GCNKJ-26" style="edgeStyle=orthogonalEdgeStyle;rounded=0;orthogonalLoop=1;jettySize=auto;html=1;exitX=1;exitY=0.5;exitDx=0;exitDy=0;exitPerimeter=0;" edge="1" parent="1">
          <mxGeometry relative="1" as="geometry">
            <mxPoint x="226.00006103515625" y="334" as="targetPoint" />
            <mxPoint x="179" y="334" as="sourcePoint" />
          </mxGeometry>
        </mxCell>
        <mxCell id="WMFtPknigPcWq87GCNKJ-18" value="数据仓库" style="shape=cylinder3;whiteSpace=wrap;html=1;boundedLbl=1;backgroundOutline=1;size=15;fillColor=#dae8fc;strokeColor=#6c8ebf;" vertex="1" parent="1">
          <mxGeometry x="115" y="304" width="60" height="60" as="geometry" />
        </mxCell>
        <mxCell id="WMFtPknigPcWq87GCNKJ-20" value="清洗，转换" style="rounded=0;whiteSpace=wrap;html=1;fillColor=#FFFFFF;strokeColor=#FFFFFF;" vertex="1" parent="1">
          <mxGeometry x="160" y="274" width="75" height="30" as="geometry" />
        </mxCell>
        <mxCell id="WMFtPknigPcWq87GCNKJ-23" value="offset，精确一次语义" style="rounded=0;whiteSpace=wrap;html=1;fillColor=#FFFFFF;strokeColor=#FFFFFF;" vertex="1" parent="1">
          <mxGeometry x="422" y="181" width="75" height="30" as="geometry" />
        </mxCell>
        <mxCell id="WMFtPknigPcWq87GCNKJ-24" value="hive/hbase/统计/机器学习" style="shape=cube;whiteSpace=wrap;html=1;boundedLbl=1;backgroundOutline=1;darkOpacity=0.05;darkOpacity2=0.1;strokeColor=#36393d;fillColor=#cce5ff;size=11;" vertex="1" parent="1">
          <mxGeometry x="229" y="309" width="89" height="57" as="geometry" />
        </mxCell>
        <mxCell id="WMFtPknigPcWq87GCNKJ-27" value="SQL" style="rounded=0;whiteSpace=wrap;html=1;fillColor=#FFFFFF;strokeColor=#FFFFFF;" vertex="1" parent="1">
          <mxGeometry x="178" y="340" width="49" height="21" as="geometry" />
        </mxCell>
        <mxCell id="WMFtPknigPcWq87GCNKJ-28" value="BI报表" style="ellipse;shape=cloud;whiteSpace=wrap;html=1;strokeColor=#A50040;fillColor=#d80073;fontColor=#ffffff;" vertex="1" parent="1">
          <mxGeometry x="481" y="224" width="75" height="60" as="geometry" />
        </mxCell>
      </root>
    </mxGraphModel>
  </diagram>
</mxfile>
